PathFileType        4      (X/Y/Z)      C:\Users\pc\Desktop\IMUTRC\Sujet_01\Sujet_01_velo_60.trc         
DataRate	CameraRate	NumFrames	NumMarkers	Units	OrigDataRate	OrigDataStartFrame	OrigNumFrames
60.0	60.0	4	64	mm	60.0	1028	1370
Frame#	Time	pHipOrigin			pRightASI			pLeftASI			pRightCSI			pLeftCSI			pRightIschialTub			pLeftIschialTub			pSacrum			pL5SpinalProcess			pL3SpinalProcess			pT12SpinalProcess			pIJ			pT4SpinalProcess			pT8SpinalProcess			pPX			pC7SpinalProcess			pTopOfHead			pRightAuricularis			pLeftAuricularis			pBackOfHead			pRightAcromion			pLeftAcromion			pRightArmLatEpicondyle			pRightArmMedEpicondyle			pLeftArmLatEpicondyle			pLeftArmMedEpicondyle			pRightUlnarStyloid			pRightRadialStyloid			pRightOlecranon			pLeftUlnarStyloid			pLeftRadialStyloid			pLeftOlecranon			pRightTopOfHand			pRightPinky			pRightBallHand			pLeftTopOfHand			pLeftPinky			pLeftBallHand			pRightGreaterTrochanter			pRightKneeLatEpicondyle			pRightKneeMedEpicondyle			pRightPatella			pLeftGreaterTrochanter			pLeftKneeLatEpicondyle			pLeftKneeMedEpicondyle			pLeftPatella			pRightTibialTub			pRightLatMalleolus			pRightMedMalleolus			pLeftTibialTub			pLeftLatMalleolus			pLeftMedMalleolus			pRightHeelFoot			pRightFirstMetatarsal			pRightFifthMetatarsal			pRightPivotFoot			pRightHeelCenter			pRightToe			pLeftHeelFoot			pLeftFirstMetatarsal			pLeftFifthMetatarsal			pLeftPivotFoot			pLeftHeelCenter			pLeftToe			
		X1	Y1	Z1	X2	Y2	Z2	X3	Y3	Z3	X4	Y4	Z4	X5	Y5	Z5	X6	Y6	Z6	X7	Y7	Z7	X8	Y8	Z8	X9	Y9	Z9	X10	Y10	Z10	X11	Y11	Z11	X12	Y12	Z12	X13	Y13	Z13	X14	Y14	Z14	X15	Y15	Z15	X16	Y16	Z16	X17	Y17	Z17	X18	Y18	Z18	X19	Y19	Z19	X20	Y20	Z20	X21	Y21	Z21	X22	Y22	Z22	X23	Y23	Z23	X24	Y24	Z24	X25	Y25	Z25	X26	Y26	Z26	X27	Y27	Z27	X28	Y28	Z28	X29	Y29	Z29	X30	Y30	Z30	X31	Y31	Z31	X32	Y32	Z32	X33	Y33	Z33	X34	Y34	Z34	X35	Y35	Z35	X36	Y36	Z36	X37	Y37	Z37	X38	Y38	Z38	X39	Y39	Z39	X40	Y40	Z40	X41	Y41	Z41	X42	Y42	Z42	X43	Y43	Z43	X44	Y44	Z44	X45	Y45	Z45	X46	Y46	Z46	X47	Y47	Z47	X48	Y48	Z48	X49	Y49	Z49	X50	Y50	Z50	X51	Y51	Z51	X52	Y52	Z52	X53	Y53	Z53	X54	Y54	Z54	X55	Y55	Z55	X56	Y56	Z56	X57	Y57	Z57	X58	Y58	Z58	X59	Y59	Z59	X60	Y60	Z60	X61	Y61	Z61	X62	Y62	Z62	X63	Y63	Z63	X64	Y64	Z64	
1028	17.117	0.0	1249.99075	7.653985854756496E-14	29.733249999999984	1333.34442	140.80861000000007	112.89833000000002	1327.68693	-94.2286199999999	8.486229999999988	1399.97707	108.12090000000009	76.81613000000002	1395.32535	-85.0509199999999	-72.85589	1207.49672	29.607530000000065	-38.65950999999999	1205.17086	-66.94694999999993	-54.18617	1278.84394	-19.86406999999993	-7.354739999999999	1364.27202	-5.531769999999917	41.55111	1457.55773	11.817870000000093	86.6853	1542.54579	28.727470000000107	301.92133	1601.13223	113.71553000000014	194.11473	1679.51988	71.53580000000012	139.04851	1621.37347	49.345880000000115	229.88263	1518.34431	84.61089000000013	227.61964	1709.37885	76.37610000000012	363.39937	1899.97336	110.38390000000015	274.51393	1836.35804	146.59182000000015	385.275	1788.14367	93.78859000000016	308.64745	1815.11103	73.04447000000016	188.77154999999996	1657.39281	254.64986000000013	302.54994	1656.95278	-76.43895999999985	275.14253999999994	1436.05927	324.80273000000017	261.25026999999994	1410.60057	279.35423000000014	428.39763	1444.79695	-87.69107999999986	391.56109	1415.44087	-61.41518999999987	369.74832999999995	1276.45522	415.3225500000001	401.49312999999995	1277.7753	384.9606900000001	251.00392999999997	1426.63012	317.3851300000002	573.35507	1297.01077	-91.65131999999984	577.12673	1299.14804	-47.90006999999985	406.77345	1432.97908	-97.30880999999985	543.99899	1263.25442	456.9993800000001	463.85122999999993	1262.75153	466.9314200000001	409.35074999999995	1262.12292	426.3860800000001	726.48444	1242.19599	-19.424049999999838	672.48685	1262.18578	-76.18751999999985	606.16851	1276.76953	-77.82189999999984	-21.561320000000016	1248.60781	146.2146600000001	297.08102999999994	1149.28745	236.54590000000007	319.58526	1145.70437	173.30774000000008	317.44799	1184.04957	203.66960000000012	57.769250000000014	1228.36657	-136.34547999999992	265.46195	957.24713	-82.09644999999992	253.64409	954.79555	-16.02954999999991	286.39466	981.32288	-41.048229999999904	349.69568	1113.45668	213.72736000000012	237.23736999999997	750.74878	200.90372000000008	254.77557999999996	752.32031	143.38591000000008	298.52683	915.19313	-50.03734999999991	144.26597000000004	587.24735	-164.25575999999995	136.53407	575.99523	-105.66931999999996	196.00055999999998	620.87798	130.18511000000007	371.94847	595.60786	186.5085500000001	325.6199199999999	589.2589	261.2502700000001	370.56551999999994	588.50457	235.6658400000001	232.27134999999998	611.88886	151.93501000000006	433.04934999999995	580.45836	273.6967400000001	24.57865000000002	498.8648	-166.26730999999998	146.40324	389.10952	-77.50759999999995	172.36483000000004	384.39494	-161.67845999999994	177.58229	371.31986	-111.89255999999995	55.19195000000002	470.38877	-155.20377999999997	234.15718	328.63725	-92.02848999999996	
1029	17.133	0.0	1249.99075	7.653985854756496E-14	29.41893999999998	1333.59586	140.68289000000007	112.70975000000001	1327.87551	-94.2286199999999	7.983349999999986	1400.10279	107.99518000000009	76.50182000000001	1395.45107	-85.1766399999999	-72.73016	1207.371	29.670390000000065	-38.47091999999999	1204.98228	-66.94694999999993	-54.24903	1278.65536	-19.926929999999928	-7.669039999999999	1364.20916	-5.6574899999999175	40.98536	1457.68345	11.692140000000094	85.99383	1542.73437	28.601750000000106	301.04127	1601.69798	113.65267000000014	193.17182	1679.95991	71.47294000000012	138.23131	1621.68777	49.22015000000011	229.19116	1518.84719	84.48517000000012	226.61386	1709.88174	76.37610000000012	361.89071	1900.7277	110.94964000000016	273.25672	1836.67235	147.03185000000013	384.08064	1789.02372	93.85146000000016	307.32737	1815.8025	73.35877000000016	187.64004999999997	1657.32995	254.52414000000013	301.7956	1657.45567	-76.50181999999985	274.13676999999996	1436.05927	324.6770000000002	260.37020999999993	1410.66343	279.1656500000002	427.83188	1445.3627	-86.93674999999986	390.99535	1416.06948	-60.53512999999987	368.67969999999997	1276.64381	415.5739900000001	400.55021999999997	1278.02675	385.2750000000001	249.99814999999998	1426.63012	317.1965500000002	572.60074	1297.51365	-91.08556999999985	576.43526	1299.52521	-47.33431999999985	406.2077	1433.60769	-96.55447999999986	542.99322	1263.82017	457.3765500000001	462.78258999999997	1263.19156	467.2457200000001	408.34497999999996	1262.43722	426.63753000000014	725.4158	1241.56738	-18.984019999999838	671.54394	1261.9972	-75.68462999999984	605.35132	1277.02097	-77.31901999999984	-22.378510000000016	1246.97342	146.1518000000001	292.1150099999999	1135.96092	237.36309000000008	315.12213	1133.00645	174.2506600000001	313.86491	1170.7859	205.4297100000001	58.58644000000002	1228.80659	-136.09403999999992	274.07391	964.41328	-79.01625999999992	262.06746	962.08742	-12.94935999999991	294.0637	989.36909	-38.0308999999999	346.17546	1101.45023	215.4246100000001	243.33487999999997	735.91359	201.9723500000001	261.56457	737.86228	144.6431300000001	305.37868	921.54209	-48.02578999999991	140.49431000000004	601.26535	-168.78174999999993	132.51096	589.00746	-110.44675999999994	206.12117999999998	604.84843	131.75663000000006	382.63483	584.54433	188.5201000000001	336.30628999999993	577.25245	263.1989600000001	381.31474999999995	577.62962	237.6774000000001	242.58054999999996	596.86508	153.56939000000006	443.86143999999996	571.40638	275.8968800000001	18.29255000000002	516.71732	-173.24487999999997	136.34548	401.30455	-86.49671999999995	162.55852000000002	397.65861	-170.66757999999993	167.08451000000002	383.32631	-121.13311999999996	48.02579000000002	487.1098	-162.68423999999996	222.27645	338.50642	-102.02337999999996	
1030	17.15	0.0	1249.99075	7.653985854756496E-14	29.35607999999998	1333.84731	140.5571700000001	112.39545000000001	1328.0641	-94.4800699999999	7.731899999999987	1400.29137	107.80659000000009	75.99893000000002	1395.51394	-85.4909399999999	-72.60444	1207.18242	29.796110000000063	-38.47091999999999	1204.85656	-66.82122999999993	-54.37475	1278.46678	-19.926929999999928	-7.983349999999999	1364.20916	-5.783209999999918	40.48248	1457.80917	11.440700000000094	85.30236	1542.98581	28.287440000000107	300.22408	1602.38945	113.33836000000014	192.16604	1680.39993	71.15864000000013	137.35126	1622.06494	48.905850000000115	228.56255	1519.35008	84.17086000000013	225.54523	1710.44749	76.06180000000013	360.31918	1901.60775	111.20109000000015	271.87377	1837.17524	147.09471000000013	382.76056	1790.0295	93.66287000000015	305.94443	1816.68256	73.29591000000016	186.63426999999996	1657.39281	254.14697000000015	300.91555	1658.08428	-76.75326999999986	273.06812999999994	1436.18499	324.3627000000002	259.49015999999995	1410.78916	278.78848000000016	427.14041	1445.99131	-86.49671999999985	390.30387	1416.76095	-60.09509999999987	367.54819999999995	1276.95811	415.5739900000001	399.41871999999995	1278.34105	385.3378600000001	248.99236999999997	1426.81871	316.8193800000002	571.72069	1297.89082	-90.70840999999984	575.55521	1299.90237	-46.95715999999985	405.51623	1434.29917	-96.11444999999988	541.79886	1264.32305	457.6279900000001	461.5882399999999	1263.63158	467.4343100000001	407.15061999999995	1262.75153	426.76325000000014	724.22144	1241.19021	-18.669709999999835	670.4753	1261.93434	-75.37031999999985	604.34554	1277.27242	-76.94184999999985	-23.06998000000002	1245.33903	146.0889400000001	286.58323999999993	1121.44003	237.36309000000008	310.03039	1118.98845	174.4392400000001	309.77895	1156.13929	206.4354800000001	59.27791000000001	1229.18376	-135.84259999999992	282.74872	972.33376	-75.37031999999992	270.67941	970.32221	-9.303429999999908	301.85846	998.35821	-34.5735399999999	341.83805	1088.24943	216.3046600000001	247.92373999999998	720.32406	202.66383000000008	266.84489	722.5242	145.58605000000009	312.54483	928.95968	-45.574219999999904	138.16845000000004	616.10054	-172.42768999999996	130.05938	602.83688	-114.28127999999994	214.23024999999998	588.19027	132.69955000000004	390.99535	572.09785	189.8401800000001	344.66679999999997	563.86306	264.45618000000013	389.73812999999996	565.246	238.99748000000008	250.81533999999996	581.14983	154.57517000000007	452.34766999999994	560.53143	277.3426800000001	13.70370000000002	535.4499	-179.21667999999997	127.73353000000002	414.50536	-94.73150999999996	154.13514000000004	411.99092	-178.83950999999993	158.03252000000003	396.40139	-129.61935999999994	42.36831000000002	504.71087	-169.28463999999997	211.71581	349.44423	-111.32680999999994	
1031	17.167	0.0	1249.99075	7.653985854756496E-14	29.670389999999983	1334.09875	140.3057300000001	111.82970000000002	1328.25268	-94.9829499999999	7.731899999999987	1400.41709	107.55515000000008	75.24460000000002	1395.5768	-85.9938299999999	-72.353	1207.05669	30.11041000000007	-38.59664999999999	1204.60511	-66.63264999999993	-54.50048	1278.27819	-19.73834999999993	-8.29765	1364.20916	-5.908929999999917	39.97959	1457.9349	11.063530000000094	84.54803	1543.23726	27.784560000000106	299.40689	1603.2695	112.64689000000014	191.0974	1680.96568	70.40431000000012	136.47121	1622.4421	48.27724000000011	227.93394	1520.04155	83.54225000000012	224.41373	1711.13896	75.30746000000013	358.6848	1902.61353	110.82392000000016	270.49083	1837.86671	146.71755000000013	381.44048	1791.16099	92.90854000000016	304.49863	1817.68833	72.79302000000015	185.62849999999997	1657.64426	253.45550000000014	299.90977	1658.90148	-77.50759999999985	271.99949999999995	1436.4993	323.79695000000015	258.54723999999993	1411.10346	278.1598700000002	426.1975	1446.61992	-86.62243999999986	389.2981	1417.45242	-60.220829999999864	366.29097999999993	1277.39814	415.3854100000001	398.22435999999993	1278.65536	385.2121300000001	247.98659999999998	1427.13301	316.19077000000016	570.58919	1298.26799	-90.70840999999984	574.36085	1300.3424	-46.95715999999985	404.57332	1434.92777	-96.24016999999988	540.47878	1264.76308	457.5651300000001	460.26814999999993	1264.07161	467.3085900000001	405.89339999999993	1263.12869	426.57467000000014	722.90136	1241.12735	-18.669709999999835	669.21808	1262.06006	-75.30745999999985	603.08832	1277.58672	-77.00470999999985	-23.51001000000002	1243.70465	146.0889400000001	280.36000999999993	1105.66192	236.54590000000007	304.12146	1103.77609	173.6849100000001	305.12724	1140.10974	206.49835000000007	59.65508000000001	1229.30948	-135.5911499999999	291.4864	981.00858	-71.0329199999999	279.35423	979.62564	-4.966019999999905	309.65323	1008.29025	-30.6761599999999	336.62059	1073.72854	216.1789400000001	250.94105999999996	703.79162	203.04099000000008	270.36511	706.18034	146.1518000000001	319.89957	937.50878	-42.619749999999904	137.41412000000003	631.69007	-175.00498999999994	129.30505000000002	617.35776	-117.17287999999995	220.07631999999998	570.96635	132.95099000000005	397.03	558.14271	190.4687900000001	350.70144999999997	548.96501	264.95906000000014	395.77277999999995	551.228	239.6260900000001	256.72428	564.61739	154.95234000000005	458.44518999999997	547.64493	278.0970100000001	10.812090000000023	555.31397	-184.24555999999998	120.44165000000001	428.71194	-102.21196999999995	147.22043000000002	427.39186	-186.19424999999995	150.36348000000004	410.48225	-137.41411999999994	38.47092000000002	523.38059	-174.87926999999996	202.41238000000004	361.51354	-120.06448999999995	
